<mxfile host="app.diagrams.net" modified="2022-03-11T06:04:01.497Z" agent="5.0 (Windows NT 6.1; Win64; x64) AppleWebKit/537.36 (KHTML, like Gecko) Chrome/99.0.4844.51 Safari/537.36" etag="kJxOVwo2Z8b2UeO_Vr6R" version="17.1.1" type="github">
  <diagram id="azF0vsBVdbxFhdOudYf9" name="Page-1">
    <mxGraphModel dx="1422" dy="762" grid="1" gridSize="10" guides="1" tooltips="1" connect="1" arrows="1" fold="1" page="1" pageScale="1" pageWidth="827" pageHeight="1169" math="0" shadow="0">
      <root>
        <mxCell id="0" />
        <mxCell id="1" parent="0" />
        <mxCell id="QLpfoowY07PznXoNDTOD-1" value="" style="whiteSpace=wrap;html=1;aspect=fixed;" vertex="1" parent="1">
          <mxGeometry x="150" y="130" width="80" height="80" as="geometry" />
        </mxCell>
        <mxCell id="QLpfoowY07PznXoNDTOD-2" value="" style="endArrow=classic;html=1;rounded=0;" edge="1" parent="1">
          <mxGeometry width="50" height="50" relative="1" as="geometry">
            <mxPoint x="390" y="420" as="sourcePoint" />
            <mxPoint x="440" y="370" as="targetPoint" />
          </mxGeometry>
        </mxCell>
        <mxCell id="QLpfoowY07PznXoNDTOD-3" value="" style="ellipse;whiteSpace=wrap;html=1;aspect=fixed;fillColor=#d5e8d4;strokeColor=#82b366;" vertex="1" parent="1">
          <mxGeometry x="350" y="140" width="80" height="80" as="geometry" />
        </mxCell>
      </root>
    </mxGraphModel>
  </diagram>
</mxfile>
